<svg width="22" height="24" viewBox="0 0 22 24" fill="none" xmlns="http://www.w3.org/2000/svg">
<path d="M10.9985 0C8.08698 0 5.83038 4.22585 5.42574 10.0966C5.94801 10.6412 6.56157 11.1812 7.24193 11.7083C7.24946 11.0954 7.28616 10.5111 7.33698 9.93785C7.91588 9.5383 8.50943 9.15958 9.11647 8.80246C11.6196 7.38462 14.1962 6.45046 16.369 6.17354C16.764 6.1222 17.1619 6.09568 17.5603 6.09415C18.7809 6.09415 19.6447 6.38215 19.9637 6.92308C20.2508 7.41323 20.1218 8.19231 19.641 9.10431C20.1331 9.552 20.6008 10.0062 21.0149 10.464C22.0745 8.74431 22.2909 7.18154 21.5936 6C20.7627 4.59046 18.8251 3.99877 16.1309 4.34123C13.7162 4.64769 10.8931 5.66492 8.17638 7.20462C8.00323 7.30154 7.84231 7.40954 7.67292 7.51477C8.34858 4.09846 9.72343 1.84615 10.9985 1.84615C11.5942 1.84615 12.2125 2.34462 12.7705 3.20954C13.391 3.01711 14.0203 2.85324 14.6563 2.71846C13.6824 1.00615 12.4167 0 10.9985 0ZM4.61739 4.25815C2.5763 4.22215 1.09888 4.82123 0.404394 6C-0.352195 7.28308 -0.0369496 9.00738 1.2645 10.9006C1.38213 11.0769 1.51105 11.2643 1.67291 11.4702C3.15033 13.3662 5.45868 15.2557 8.17544 16.7963C8.34858 16.8932 8.52832 16.98 8.70524 17.0769C7.62775 17.4415 6.58415 17.7046 5.6243 17.8274C3.78929 18.0609 2.44832 17.7803 2.03708 17.0769C1.74631 16.5868 1.87523 15.8077 2.35704 14.8957C1.87744 14.4637 1.41746 14.0113 0.978424 13.5397C-0.0774139 15.2566 -0.293851 16.8166 0.404394 18C1.081 19.1502 2.49254 19.7557 4.44801 19.7557C4.89312 19.7557 5.37022 19.7234 5.86708 19.6588C6.1541 19.6218 6.44111 19.5757 6.73472 19.5185L6.9408 19.4751C6.95492 19.4751 6.96621 19.4714 6.98032 19.4677C7.48095 19.3634 8.0324 19.2185 8.66477 19.0246L9.28585 18.8363C10.2081 18.5262 11.1529 18.1403 12.0977 17.6898C12.3037 17.0188 12.4872 16.2369 12.6265 15.336C12.0826 15.6342 11.5349 15.9046 10.991 16.1575C10.3519 15.865 9.72645 15.5447 9.11647 15.1975C6.60956 13.7778 4.496 12.0582 3.16915 10.3514C2.04367 8.90585 1.62115 7.62646 2.03708 6.92308C2.31939 6.44031 3.0694 6.16615 4.10265 6.11538C4.24945 5.46277 4.41884 4.84246 4.61739 4.25815ZM15.4609 8.21354C14.7184 8.38338 13.9317 8.63262 13.1271 8.94554C13.6598 9.25569 14.167 9.588 14.6601 9.91938C14.7184 10.5905 14.7627 11.2754 14.7627 12C14.7627 17.4443 13.017 21.5982 11.3373 22.0994C11.2225 22.1363 11.1049 22.1538 10.9985 22.1538C10.4029 22.1538 9.7846 21.66 9.22657 20.7877C8.58667 20.9852 7.95523 21.1551 7.34074 21.2815C8.31471 22.9938 9.58039 24 10.9985 24C11.1867 24 11.3655 23.9815 11.5424 23.9455C14.4869 23.3982 16.6447 18.4505 16.6447 12C16.6447 11.8015 16.6297 11.6105 16.6259 11.412C17.4869 12.144 18.2445 12.8982 18.8317 13.6477C19.9534 15.0942 20.375 16.3735 19.9637 17.0769C19.6739 17.5634 18.9352 17.8449 17.8944 17.8957C17.7566 18.5205 17.5861 19.138 17.3834 19.7455C17.4352 19.7455 17.4973 19.7557 17.5491 19.7557C19.5045 19.7557 20.9161 19.1502 21.5927 18C22.4236 16.5905 21.9747 14.6465 20.3242 12.5298C19.1554 11.0298 17.4606 9.53723 15.4609 8.21354ZM10.9985 10.1538C10.4994 10.1538 10.0207 10.3484 9.66771 10.6946C9.31476 11.0408 9.11647 11.5104 9.11647 12C9.11647 12.4896 9.31476 12.9592 9.66771 13.3054C10.0207 13.6516 10.4994 13.8462 10.9985 13.8462C11.4977 13.8462 11.9764 13.6516 12.3293 13.3054C12.6823 12.9592 12.8806 12.4896 12.8806 12C12.8806 11.5104 12.6823 11.0408 12.3293 10.6946C11.9764 10.3484 11.4977 10.1538 10.9985 10.1538Z" fill="url(#paint0_linear_573_1565)"/>
<defs>
<linearGradient id="paint0_linear_573_1565" x1="11" y1="0" x2="11" y2="24" gradientUnits="userSpaceOnUse">
<stop stop-color="#A878D4"/>
<stop offset="1" stop-color="#7C47A9"/>
</linearGradient>
</defs>
</svg>
