<svg width="26" height="20" viewBox="0 0 26 20" fill="none" xmlns="http://www.w3.org/2000/svg">
<path d="M25.4613 0.821156C25.4494 0.617279 25.3631 0.424871 25.2186 0.280462C25.0742 0.136054 24.8818 0.049699 24.6779 0.0377929C19.2853 -0.274719 14.9555 1.36493 13.0947 4.43587C11.8654 6.46616 11.8675 8.93188 13.0781 11.284C12.3889 12.1042 11.8853 13.0636 11.6018 14.0967L9.90673 12.3955C10.7214 10.6944 10.6902 8.92146 9.80255 7.44849C8.42732 5.17861 5.25285 3.9619 1.31158 4.19316C1.10768 4.20506 0.915249 4.29142 0.770822 4.43583C0.626396 4.58024 0.54003 4.77264 0.528123 4.97652C0.295793 8.91729 1.5137 12.0914 3.78386 13.4664C4.53296 13.9242 5.39385 14.1664 6.27176 14.1664C7.12387 14.1559 7.96272 13.954 8.72633 13.5758L11.3309 16.1801V19.1666C11.3309 19.3877 11.4187 19.5996 11.575 19.7559C11.7313 19.9122 11.9433 20 12.1644 20C12.3854 20 12.5974 19.9122 12.7537 19.7559C12.91 19.5996 12.9979 19.3877 12.9979 19.1666V16.0946C12.9941 14.7689 13.4453 13.4819 14.2762 12.4487C15.3482 13.0089 16.5371 13.3086 17.7465 13.3237C18.9159 13.3275 20.0635 13.0081 21.0627 12.4008C24.134 10.5424 25.7781 6.21302 25.4613 0.821156ZM4.64338 12.0414C3.0452 11.0736 2.14088 8.78291 2.16276 5.8328C5.11324 5.8078 7.40424 6.71513 8.37211 8.3131C8.8774 9.14647 8.9597 10.1184 8.6284 11.1195L6.08528 8.57665C5.9277 8.42697 5.71787 8.34475 5.50054 8.34753C5.2832 8.35031 5.07555 8.43787 4.92186 8.59155C4.76816 8.74522 4.68059 8.95285 4.67781 9.17016C4.67502 9.38747 4.75725 9.59727 4.90696 9.75482L7.45008 12.2976C6.44888 12.6289 5.47789 12.5466 4.64338 12.0414ZM20.199 10.9767C18.803 11.8216 17.1621 11.8862 15.4951 11.1851L21.0888 5.59113C21.2385 5.43357 21.3207 5.22377 21.3179 5.00646C21.3151 4.78915 21.2276 4.58152 21.0739 4.42785C20.9202 4.27418 20.7125 4.18661 20.4952 4.18383C20.2778 4.18105 20.068 4.26327 19.9104 4.41296L14.3158 9.99963C13.6115 8.3329 13.6751 6.69117 14.5241 5.29632C15.9765 2.9004 19.4208 1.56493 23.8309 1.66806C23.9309 6.07656 22.5973 9.52461 20.199 10.9767Z" fill="#538786"/>
</svg>
