<svg width="7" height="12" viewBox="0 0 7 12" fill="none" xmlns="http://www.w3.org/2000/svg">
<path d="M0 0.5C0 1.91429 0.78 3.20286 2 3.81048V11.5H3V7.83333H4V11.5H5V3.80524C6.22 3.20286 7 1.91429 7 0.5H6C6 1.19461 5.73661 1.86078 5.26777 2.35195C5.03562 2.59515 4.76002 2.78807 4.45671 2.91968C4.15339 3.0513 3.8283 3.11905 3.5 3.11905C2.83696 3.11905 2.20107 2.84311 1.73223 2.35195C1.26339 1.86078 1 1.19461 1 0.5M3.5 0.5C2.945 0.5 2.5 0.96619 2.5 1.54762C2.5 2.12905 2.945 2.59524 3.5 2.59524C4.055 2.59524 4.5 2.12905 4.5 1.54762C4.5 0.96619 4.055 0.5 3.5 0.5Z" fill="#538786"/>
</svg>
